<svg width="100" height="100" viewBox="0 0 100 100" fill="none" xmlns="http://www.w3.org/2000/svg">
<path d="M82.026 14H17.974C16.92 14 15.9092 14.4187 15.164 15.164C14.4187 15.9092 14 16.92 14 17.974V82.027C14.0003 83.0808 14.4191 84.0913 15.1643 84.8364C15.9096 85.5814 16.9202 86 17.974 86H52.457V58.118H43.074V47.252H52.457V39.238C52.457 29.938 58.137 24.875 66.433 24.875C70.407 24.875 73.822 25.17 74.818 25.303V35.022L69.064 35.025C64.552 35.025 63.679 37.169 63.679 40.315V47.253H74.439L73.038 58.119H63.679V86H82.027C83.0808 85.9997 84.0913 85.5809 84.8364 84.8357C85.5814 84.0904 86 83.0798 86 82.026V17.974C86 16.92 85.5813 15.9092 84.836 15.164C84.0908 14.4187 83.08 14 82.026 14V14Z" fill="white"/>
</svg>
