<svg width="100" height="100" viewBox="0 0 100 100" fill="none" xmlns="http://www.w3.org/2000/svg">
<path fill-rule="evenodd" clip-rule="evenodd" d="M49.998 11.963C28.461 11.963 11 29.425 11 50.965C11 68.196 22.172 82.814 37.671 87.968C39.623 88.329 40.333 87.128 40.333 86.091C40.333 85.167 40.299 82.716 40.282 79.458C29.433 81.817 27.144 74.229 27.144 74.229C25.37 69.724 22.813 68.526 22.813 68.526C19.272 66.108 23.082 66.155 23.082 66.155C26.996 66.432 29.056 70.173 29.056 70.173C32.534 76.133 38.185 74.408 40.406 73.416C40.759 70.891 41.769 69.176 42.882 68.199C34.223 67.215 25.119 63.869 25.119 48.925C25.119 44.666 26.638 41.184 29.132 38.457C28.733 37.475 27.392 33.51 29.515 28.138C29.515 28.138 32.789 27.09 40.241 32.139C43.35 31.27 46.687 30.836 50.004 30.823C53.316 30.837 56.654 31.27 59.767 32.139C67.214 27.09 70.483 28.138 70.483 28.138C72.611 33.51 71.271 37.475 70.871 38.457C73.371 41.184 74.879 44.666 74.879 48.925C74.879 63.904 65.762 67.204 57.074 68.166C58.472 69.371 59.72 71.756 59.72 75.395C59.72 80.606 59.673 84.811 59.673 86.09C59.673 87.135 60.374 88.35 62.354 87.963C77.836 82.798 89 68.191 89 50.965C89 29.425 71.539 11.963 49.998 11.963V11.963Z" fill="white"/>
</svg>
