<svg width="100" height="100" viewBox="0 0 100 100" fill="none" xmlns="http://www.w3.org/2000/svg">
<path d="M88.5 26.12C85.6168 27.3972 82.5586 28.2352 79.427 28.606C82.7255 26.6324 85.1938 23.5268 86.372 19.868C83.2716 21.7085 79.8789 23.0046 76.341 23.7C74.8629 22.1234 73.0767 20.8672 71.0932 20.0092C69.1097 19.1512 66.9711 18.7097 64.81 18.712C56.086 18.712 49.012 25.784 49.012 34.51C49.012 35.747 49.152 36.954 49.422 38.111C36.292 37.452 24.652 31.162 16.86 21.603C15.4551 24.014 14.7168 26.7555 14.721 29.546C14.7189 32.147 15.3594 34.7082 16.5855 37.0022C17.8115 39.2961 19.5852 41.2516 21.749 42.695C19.2407 42.6153 16.7877 41.9379 14.594 40.719C14.592 40.785 14.592 40.85 14.592 40.918C14.592 48.57 20.037 54.955 27.263 56.408C24.9363 57.0379 22.4967 57.1302 20.129 56.678C22.139 62.953 27.973 67.522 34.886 67.65C29.2899 72.0416 22.3795 74.4236 15.266 74.413C13.991 74.413 12.734 74.339 11.497 74.192C18.7203 78.8332 27.1272 81.2966 35.713 81.288C64.771 81.288 80.661 57.217 80.661 36.343C80.661 35.659 80.645 34.976 80.615 34.297C83.7095 32.0629 86.3799 29.2937 88.5 26.12V26.12Z" fill="white"/>
</svg>
