<svg width="14" height="14" viewBox="0 0 14 14" fill="none" xmlns="http://www.w3.org/2000/svg">
<path d="M6.90023 6.74385C7.82671 6.74385 8.62887 6.41156 9.28447 5.75596C9.93987 5.10045 10.2723 4.29841 10.2723 3.37182C10.2723 2.44555 9.93997 1.6434 9.28437 0.987684C8.62876 0.33229 7.82661 0 6.90023 0C5.97364 0 5.1716 0.33229 4.5161 0.987791C3.8606 1.64329 3.5282 2.44545 3.5282 3.37182C3.5282 4.29841 3.8606 5.10056 4.5161 5.75606C5.17181 6.41146 5.97396 6.74385 6.90023 6.74385ZM5.0963 1.56788C5.59927 1.06491 6.1893 0.820418 6.90023 0.820418C7.61106 0.820418 8.20119 1.06491 8.70427 1.56788C9.20725 2.07096 9.45185 2.6611 9.45185 3.37182C9.45185 4.08276 9.20725 4.67278 8.70427 5.17586C8.20119 5.67894 7.61106 5.92344 6.90023 5.92344C6.18951 5.92344 5.59948 5.67884 5.0963 5.17586C4.59321 4.67289 4.34862 4.08276 4.34862 3.37182C4.34862 2.6611 4.59321 2.07096 5.0963 1.56788Z" fill="#FF4A52"/>
<path d="M12.8004 10.7653C12.7815 10.4925 12.7432 10.1949 12.6869 9.88069C12.6301 9.5641 12.557 9.26481 12.4694 8.99127C12.3788 8.70854 12.2559 8.42933 12.1036 8.16177C11.9459 7.88406 11.7605 7.64224 11.5524 7.44325C11.3348 7.23508 11.0684 7.0677 10.7604 6.94562C10.4534 6.82417 10.1132 6.76265 9.74931 6.76265C9.6064 6.76265 9.46818 6.82129 9.20126 6.99507C9.03699 7.1022 8.84483 7.2261 8.63036 7.36314C8.44696 7.47999 8.19852 7.58948 7.89165 7.6886C7.59226 7.78547 7.28827 7.83461 6.98813 7.83461C6.68821 7.83461 6.38422 7.78547 6.08462 7.6886C5.77807 7.58958 5.52952 7.4801 5.34644 7.36325C5.13399 7.22749 4.94173 7.10359 4.775 6.99496C4.50829 6.82118 4.37008 6.76254 4.22717 6.76254C3.86315 6.76254 3.52307 6.82417 3.2162 6.94572C2.90837 7.0676 2.64187 7.23497 2.42409 7.44336C2.21602 7.64245 2.03059 7.88417 1.87294 8.16177C1.72095 8.42933 1.5979 8.70843 1.50732 8.99137C1.41985 9.26492 1.34668 9.5641 1.28986 9.88069C1.23346 10.1945 1.19533 10.4922 1.17642 10.7656C1.15784 11.033 1.14844 11.3112 1.14844 11.5923C1.14844 12.3231 1.38075 12.9148 1.83887 13.3511C2.29132 13.7816 2.88989 14 3.61802 14H10.3591C11.087 14 11.6856 13.7816 12.1381 13.3511C12.5964 12.9151 12.8287 12.3232 12.8287 11.5922C12.8286 11.3101 12.8191 11.0319 12.8004 10.7653ZM11.5725 12.7567C11.2735 13.0412 10.8766 13.1796 10.359 13.1796H3.61802C3.10031 13.1796 2.7034 13.0412 2.40454 12.7568C2.11134 12.4777 1.96886 12.0967 1.96886 11.5923C1.96886 11.33 1.97751 11.071 1.99481 10.8223C2.01169 10.5784 2.04619 10.3104 2.09735 10.0256C2.14787 9.74439 2.21217 9.48046 2.28865 9.24153C2.36203 9.01242 2.46211 8.78555 2.58622 8.56701C2.70468 8.35873 2.84097 8.18004 2.99136 8.03605C3.13203 7.90137 3.30934 7.79114 3.51826 7.70846C3.71148 7.63199 3.92863 7.59012 4.16436 7.58381C4.19309 7.59909 4.24426 7.62825 4.32714 7.6823C4.4958 7.7922 4.69019 7.9176 4.9051 8.05485C5.14735 8.2093 5.45945 8.3488 5.83233 8.46917C6.21354 8.59243 6.60233 8.65503 6.98824 8.65503C7.37415 8.65503 7.76305 8.59243 8.14404 8.46928C8.51724 8.34869 8.82924 8.2093 9.07181 8.05464C9.29173 7.91408 9.48068 7.79231 9.64934 7.6823C9.73222 7.62836 9.78338 7.59909 9.81212 7.58381C10.048 7.59012 10.2651 7.63199 10.4584 7.70846C10.6672 7.79114 10.8446 7.90147 10.9852 8.03605C11.1356 8.17993 11.2719 8.35862 11.3904 8.56712C11.5146 8.78555 11.6148 9.01252 11.688 9.24142C11.7646 9.48068 11.829 9.7445 11.8794 10.0255C11.9305 10.3108 11.9651 10.5789 11.982 10.8224V10.8227C11.9994 11.0704 12.0082 11.3293 12.0083 11.5923C12.0082 12.0968 11.8657 12.4777 11.5725 12.7567Z" fill="#FF4A52"/>
</svg>
