<svg width="14" height="14" viewBox="0 0 14 14" fill="none" xmlns="http://www.w3.org/2000/svg">
<path d="M6.99999 0C3.134 0 0 3.134 0 6.99999C0 10.866 3.134 14 6.99999 14C10.866 14 14 10.866 14 6.99999C13.9959 3.13573 10.8643 0.00413086 6.99999 0ZM6.99999 13C3.68628 13 0.99999 10.3137 0.99999 6.99999C0.99999 3.68628 3.68628 0.99999 6.99999 0.99999C10.3137 0.99999 13 3.68628 13 6.99999C12.9964 10.3122 10.3122 12.9964 6.99999 13Z" fill="#FF4A52"/>
<path d="M6.99997 2.49997C6.72381 2.49997 6.49996 2.72383 6.49996 2.99998V6.49999H2.99998C2.72383 6.49999 2.49997 6.72384 2.49997 7C2.49997 7.27615 2.72383 7.49998 2.99998 7.49998H6.99997C7.27612 7.49998 7.49998 7.27612 7.49998 6.99997V2.99998C7.49998 2.72383 7.27612 2.49997 6.99997 2.49997Z" fill="#FF4A52"/>
</svg>
