<svg width="128" height="38" viewBox="0 0 128 38" fill="none" xmlns="http://www.w3.org/2000/svg">
<g clip-path="url(#clip0)">
<path d="M17.5011 4.74075C9.34929 4.74075 2.74194 11.3481 2.74194 19.5C2.74194 25.3735 6.18181 30.43 11.1486 32.8055L11.6105 23.8792C11.6105 23.8792 10.7416 23.594 10.5514 23.5012C8.70835 22.6893 7.36947 20.2989 7.36947 17.1966C7.36947 13.8112 9.99492 10.8952 12.5332 10.8712C12.5364 10.8712 12.5364 10.8712 12.5386 10.8712C12.5397 10.8712 12.5418 10.8712 12.5428 10.8712C15.0816 10.8952 17.7072 13.8111 17.7072 17.1966C17.7072 20.2989 16.3666 22.6883 14.5274 23.5012C14.5129 23.5075 13.4598 23.8899 13.4598 23.8899L13.9757 33.8149C15.1078 34.0935 16.2849 34.2571 17.5031 34.2571C19.1459 34.2571 20.7192 33.9772 22.1953 33.4827L22.6525 24.6376C21.4478 24.3727 20.4201 23.6057 19.7761 22.6435C18.9782 21.4483 20.3903 10.8702 20.3903 10.8702H21.3088V20.7967H22.2211V10.8713H23.2187V20.7989H24.1266V10.8713H25.1617V20.7989H26.0727V10.8713H26.7776C26.7776 10.8713 28.1897 21.4494 27.3908 22.6446C26.7531 23.5973 25.7351 24.3621 24.5454 24.6334C24.524 24.6409 24.5047 24.6483 24.5047 24.6483L24.9021 32.2566C29.2985 29.7005 32.2614 24.9517 32.2614 19.5001C32.2592 11.3482 25.6518 4.74075 17.5011 4.74075Z" fill="#FF4A52"/>
<path d="M9.52974 15.6959C9.5826 15.4807 9.65366 15.2761 9.65688 15.2724C9.67986 15.1918 9.63712 15.1095 9.54951 15.0572C9.46622 15.0124 9.36473 15.0353 9.31775 15.1074C9.31775 15.1074 9.21681 15.2682 9.07046 15.5058C8.95141 15.7104 8.77517 16.0372 8.65493 16.4442C8.55077 16.8009 8.42639 17.2751 8.37031 17.8059C8.34632 18.0848 8.34089 18.3363 8.34944 18.5953C8.37031 18.8905 8.41508 19.1432 8.50058 19.4321C8.79053 20.2562 9.01383 21.0541 9.81969 21.8412C10.0744 22.103 10.3362 22.2813 10.5252 22.4127L10.5919 22.4597C10.6325 22.4864 10.6715 22.5111 10.7099 22.5335C10.8686 22.6168 10.9748 22.6467 10.9941 22.6509C11.0731 22.6722 11.1543 22.6338 11.1879 22.5697C11.2194 22.5024 11.1964 22.418 11.1308 22.3647C11.1308 22.3647 11.0389 22.2846 10.9209 22.1351C10.8403 22.0442 10.7527 21.9129 10.6507 21.7645C10.5787 21.6598 10.4937 21.5412 10.4147 21.4258C10.0221 20.8266 9.79579 19.9903 9.48277 19.1336C9.42136 18.9477 9.37116 18.7069 9.35241 18.5023C9.3274 18.2662 9.31563 18.0388 9.31563 17.8278C9.30653 17.3376 9.32841 16.9167 9.37116 16.5755C9.42025 16.1904 9.45868 15.9015 9.52974 15.6959Z" fill="#FF4A52"/>
<path d="M17.501 2C7.85226 2 0 9.85062 0 19.5C0 29.1472 7.85226 37 17.501 37C27.1494 37 35.0001 29.1472 35.0001 19.5C35 9.85062 27.1494 2 17.501 2ZM17.501 35.6948C8.57052 35.6948 1.30468 28.4295 1.30468 19.5C1.30468 10.5694 8.57052 3.30358 17.501 3.30358C26.4305 3.30358 33.6969 10.5694 33.6969 19.5C33.6968 28.4295 26.4305 35.6948 17.501 35.6948Z" fill="#FF4A52"/>
</g>
<path d="M53.38 7.96V10.7H47.66V13.66H51.94V16.32H47.66V22H44.24V7.96H53.38ZM61.8175 22.14C60.4975 22.14 59.2842 21.8333 58.1775 21.22C57.0842 20.6067 56.2108 19.7533 55.5575 18.66C54.9175 17.5533 54.5975 16.3133 54.5975 14.94C54.5975 13.5667 54.9175 12.3333 55.5575 11.24C56.2108 10.1467 57.0842 9.29333 58.1775 8.68C59.2842 8.06667 60.4975 7.76 61.8175 7.76C63.1375 7.76 64.3442 8.06667 65.4375 8.68C66.5442 9.29333 67.4108 10.1467 68.0375 11.24C68.6775 12.3333 68.9975 13.5667 68.9975 14.94C68.9975 16.3133 68.6775 17.5533 68.0375 18.66C67.3975 19.7533 66.5308 20.6067 65.4375 21.22C64.3442 21.8333 63.1375 22.14 61.8175 22.14ZM61.8175 19.02C62.9375 19.02 63.8308 18.6467 64.4975 17.9C65.1775 17.1533 65.5175 16.1667 65.5175 14.94C65.5175 13.7 65.1775 12.7133 64.4975 11.98C63.8308 11.2333 62.9375 10.86 61.8175 10.86C60.6842 10.86 59.7775 11.2267 59.0975 11.96C58.4308 12.6933 58.0975 13.6867 58.0975 14.94C58.0975 16.18 58.4308 17.1733 59.0975 17.92C59.7775 18.6533 60.6842 19.02 61.8175 19.02ZM77.5402 22.14C76.2202 22.14 75.0068 21.8333 73.9002 21.22C72.8068 20.6067 71.9335 19.7533 71.2802 18.66C70.6402 17.5533 70.3202 16.3133 70.3202 14.94C70.3202 13.5667 70.6402 12.3333 71.2802 11.24C71.9335 10.1467 72.8068 9.29333 73.9002 8.68C75.0068 8.06667 76.2202 7.76 77.5402 7.76C78.8602 7.76 80.0668 8.06667 81.1602 8.68C82.2668 9.29333 83.1335 10.1467 83.7602 11.24C84.4002 12.3333 84.7202 13.5667 84.7202 14.94C84.7202 16.3133 84.4002 17.5533 83.7602 18.66C83.1202 19.7533 82.2535 20.6067 81.1602 21.22C80.0668 21.8333 78.8602 22.14 77.5402 22.14ZM77.5402 19.02C78.6602 19.02 79.5535 18.6467 80.2202 17.9C80.9002 17.1533 81.2402 16.1667 81.2402 14.94C81.2402 13.7 80.9002 12.7133 80.2202 11.98C79.5535 11.2333 78.6602 10.86 77.5402 10.86C76.4068 10.86 75.5002 11.2267 74.8202 11.96C74.1535 12.6933 73.8202 13.6867 73.8202 14.94C73.8202 16.18 74.1535 17.1733 74.8202 17.92C75.5002 18.6533 76.4068 19.02 77.5402 19.02ZM91.8828 7.96C93.3628 7.96 94.6561 8.25333 95.7628 8.84C96.8695 9.42667 97.7228 10.2533 98.3228 11.32C98.9361 12.3733 99.2428 13.5933 99.2428 14.98C99.2428 16.3533 98.9361 17.5733 98.3228 18.64C97.7228 19.7067 96.8628 20.5333 95.7428 21.12C94.6361 21.7067 93.3495 22 91.8828 22H86.6228V7.96H91.8828ZM91.6628 19.04C92.9561 19.04 93.9628 18.6867 94.6828 17.98C95.4028 17.2733 95.7628 16.2733 95.7628 14.98C95.7628 13.6867 95.4028 12.68 94.6828 11.96C93.9628 11.24 92.9561 10.88 91.6628 10.88H90.0428V19.04H91.6628ZM118.049 7.96V16.36C118.049 17.2 118.256 17.8467 118.669 18.3C119.083 18.7533 119.689 18.98 120.489 18.98C121.289 18.98 121.903 18.7533 122.329 18.3C122.756 17.8467 122.969 17.2 122.969 16.36V7.96H126.389V16.34C126.389 17.5933 126.123 18.6533 125.589 19.52C125.056 20.3867 124.336 21.04 123.429 21.48C122.536 21.92 121.536 22.14 120.429 22.14C119.323 22.14 118.329 21.9267 117.449 21.5C116.583 21.06 115.896 20.4067 115.389 19.54C114.883 18.66 114.629 17.5933 114.629 16.34V7.96H118.049Z" fill="white"/>
<path d="M100.894 19.4V16.64L107.214 7.6H111.034V16.44H112.674V19.4H111.034V22H107.614V19.4H100.894ZM107.854 11.36L104.494 16.44H107.854V11.36Z" fill="#FF4A52"/>
<path d="M45.92 35.07C45.46 35.07 45.0533 34.99 44.7 34.83C44.3533 34.67 44.08 34.4467 43.88 34.16C43.68 33.8733 43.5733 33.5533 43.56 33.2H44.3C44.3333 33.54 44.4833 33.84 44.75 34.1C45.0167 34.3533 45.4067 34.48 45.92 34.48C46.3933 34.48 46.7667 34.36 47.04 34.12C47.32 33.8733 47.46 33.5633 47.46 33.19C47.46 32.89 47.3833 32.65 47.23 32.47C47.0767 32.2833 46.8867 32.1467 46.66 32.06C46.4333 31.9667 46.12 31.8667 45.72 31.76C45.2533 31.6333 44.8833 31.51 44.61 31.39C44.3367 31.27 44.1033 31.0833 43.91 30.83C43.7167 30.5767 43.62 30.2333 43.62 29.8C43.62 29.44 43.7133 29.12 43.9 28.84C44.0867 28.5533 44.35 28.33 44.69 28.17C45.03 28.01 45.42 27.93 45.86 27.93C46.5067 27.93 47.0267 28.09 47.42 28.41C47.82 28.7233 48.05 29.13 48.11 29.63H47.35C47.3033 29.3433 47.1467 29.09 46.88 28.87C46.6133 28.6433 46.2533 28.53 45.8 28.53C45.38 28.53 45.03 28.6433 44.75 28.87C44.47 29.09 44.33 29.3933 44.33 29.78C44.33 30.0733 44.4067 30.31 44.56 30.49C44.7133 30.67 44.9033 30.8067 45.13 30.9C45.3633 30.9933 45.6767 31.0933 46.07 31.2C46.5233 31.3267 46.89 31.4533 47.17 31.58C47.45 31.7 47.6867 31.8867 47.88 32.14C48.0733 32.3933 48.17 32.7333 48.17 33.16C48.17 33.4867 48.0833 33.7967 47.91 34.09C47.7367 34.3833 47.48 34.62 47.14 34.8C46.8 34.98 46.3933 35.07 45.92 35.07ZM49.8727 28.51C49.7327 28.51 49.6127 28.46 49.5127 28.36C49.4127 28.26 49.3627 28.1367 49.3627 27.99C49.3627 27.8433 49.4127 27.7233 49.5127 27.63C49.6127 27.53 49.7327 27.48 49.8727 27.48C50.0127 27.48 50.1327 27.53 50.2327 27.63C50.3327 27.7233 50.3827 27.8433 50.3827 27.99C50.3827 28.1367 50.3327 28.26 50.2327 28.36C50.1327 28.46 50.0127 28.51 49.8727 28.51ZM50.2227 29.54V35H49.5227V29.54H50.2227ZM58.3078 29.44C58.9478 29.44 59.4678 29.6433 59.8678 30.05C60.2745 30.45 60.4778 31.0333 60.4778 31.8V35H59.7878V31.88C59.7878 31.2867 59.6445 30.8333 59.3578 30.52C59.0711 30.2067 58.6811 30.05 58.1878 30.05C57.6745 30.05 57.2645 30.22 56.9578 30.56C56.6511 30.9 56.4978 31.3933 56.4978 32.04V35H55.8078V31.88C55.8078 31.2867 55.6645 30.8333 55.3778 30.52C55.0911 30.2067 54.6978 30.05 54.1978 30.05C53.6845 30.05 53.2745 30.22 52.9678 30.56C52.6611 30.9 52.5078 31.3933 52.5078 32.04V35H51.8078V29.54H52.5078V30.48C52.6811 30.14 52.9278 29.8833 53.2478 29.71C53.5678 29.53 53.9245 29.44 54.3178 29.44C54.7911 29.44 55.2045 29.5533 55.5578 29.78C55.9178 30.0067 56.1778 30.34 56.3378 30.78C56.4845 30.3467 56.7345 30.0167 57.0878 29.79C57.4478 29.5567 57.8545 29.44 58.3078 29.44ZM62.7224 30.74C62.8958 30.3733 63.1691 30.07 63.5424 29.83C63.9224 29.5833 64.3724 29.46 64.8924 29.46C65.3858 29.46 65.8291 29.5767 66.2224 29.81C66.6224 30.0367 66.9324 30.3633 67.1524 30.79C67.3791 31.21 67.4924 31.7 67.4924 32.26C67.4924 32.82 67.3791 33.3133 67.1524 33.74C66.9324 34.1667 66.6224 34.4967 66.2224 34.73C65.8291 34.9633 65.3858 35.08 64.8924 35.08C64.3791 35.08 63.9324 34.96 63.5524 34.72C63.1724 34.4733 62.8958 34.1667 62.7224 33.8V37.58H62.0324V29.54H62.7224V30.74ZM66.7824 32.26C66.7824 31.8067 66.6924 31.4167 66.5124 31.09C66.3391 30.7567 66.0991 30.5033 65.7924 30.33C65.4858 30.1567 65.1391 30.07 64.7524 30.07C64.3791 30.07 64.0358 30.16 63.7224 30.34C63.4158 30.52 63.1724 30.7767 62.9924 31.11C62.8124 31.4433 62.7224 31.83 62.7224 32.27C62.7224 32.71 62.8124 33.0967 62.9924 33.43C63.1724 33.7633 63.4158 34.02 63.7224 34.2C64.0358 34.38 64.3791 34.47 64.7524 34.47C65.1391 34.47 65.4858 34.3833 65.7924 34.21C66.0991 34.03 66.3391 33.7733 66.5124 33.44C66.6924 33.1 66.7824 32.7067 66.7824 32.26ZM69.4805 27.6V35H68.7805V27.6H69.4805ZM76.0056 31.99C76.0056 32.23 75.999 32.4133 75.9856 32.54H71.4556C71.4756 32.9533 71.5756 33.3067 71.7556 33.6C71.9356 33.8933 72.1723 34.1167 72.4656 34.27C72.759 34.4167 73.079 34.49 73.4256 34.49C73.879 34.49 74.259 34.38 74.5656 34.16C74.879 33.94 75.0856 33.6433 75.1856 33.27H75.9256C75.7923 33.8033 75.5056 34.24 75.0656 34.58C74.6323 34.9133 74.0856 35.08 73.4256 35.08C72.9123 35.08 72.4523 34.9667 72.0456 34.74C71.639 34.5067 71.319 34.18 71.0856 33.76C70.859 33.3333 70.7456 32.8367 70.7456 32.27C70.7456 31.7033 70.859 31.2067 71.0856 30.78C71.3123 30.3533 71.629 30.0267 72.0356 29.8C72.4423 29.5733 72.9056 29.46 73.4256 29.46C73.9456 29.46 74.399 29.5733 74.7856 29.8C75.179 30.0267 75.479 30.3333 75.6856 30.72C75.899 31.1 76.0056 31.5233 76.0056 31.99ZM75.2956 31.97C75.3023 31.5633 75.219 31.2167 75.0456 30.93C74.879 30.6433 74.649 30.4267 74.3556 30.28C74.0623 30.1333 73.7423 30.06 73.3956 30.06C72.8756 30.06 72.4323 30.2267 72.0656 30.56C71.699 30.8933 71.4956 31.3633 71.4556 31.97H75.2956ZM85.3505 35L84.4005 34.03C84.0605 34.4033 83.6971 34.68 83.3105 34.86C82.9238 35.0333 82.4871 35.12 82.0005 35.12C81.5338 35.12 81.1205 35.0333 80.7605 34.86C80.4005 34.68 80.1205 34.43 79.9205 34.11C79.7205 33.79 79.6205 33.42 79.6205 33C79.6205 32.5067 79.7605 32.0767 80.0405 31.71C80.3205 31.3433 80.7305 31.0567 81.2705 30.85C81.0371 30.59 80.8671 30.35 80.7605 30.13C80.6538 29.9033 80.6005 29.66 80.6005 29.4C80.6005 28.9533 80.7605 28.5933 81.0805 28.32C81.4005 28.04 81.8271 27.9 82.3605 27.9C82.8605 27.9 83.2671 28.0433 83.5805 28.33C83.8938 28.6167 84.0405 28.99 84.0205 29.45H83.3205C83.3271 29.15 83.2338 28.9133 83.0405 28.74C82.8538 28.5667 82.6171 28.48 82.3305 28.48C82.0238 28.48 81.7738 28.5667 81.5805 28.74C81.3938 28.9067 81.3005 29.1233 81.3005 29.39C81.3005 29.6033 81.3571 29.81 81.4705 30.01C81.5905 30.21 81.7771 30.4467 82.0305 30.72L84.3305 33.05C84.4238 32.9233 84.5505 32.7233 84.7105 32.45L85.3505 31.38H86.1005L85.3405 32.69C85.1605 33.0033 84.9805 33.2833 84.8005 33.53L86.2605 35H85.3505ZM82.0005 34.51C82.3938 34.51 82.7438 34.4333 83.0505 34.28C83.3638 34.1267 83.6605 33.8867 83.9405 33.56L81.7105 31.3C80.7838 31.64 80.3205 32.2 80.3205 32.98C80.3205 33.2733 80.3905 33.5367 80.5305 33.77C80.6771 33.9967 80.8771 34.1767 81.1305 34.31C81.3838 34.4433 81.6738 34.51 82.0005 34.51ZM92.0321 28.01C92.8054 28.01 93.4688 28.15 94.0221 28.43C94.5754 28.71 94.9988 29.1133 95.2921 29.64C95.5854 30.1667 95.7321 30.7933 95.7321 31.52C95.7321 32.24 95.5854 32.8633 95.2921 33.39C94.9988 33.91 94.5754 34.31 94.0221 34.59C93.4688 34.8633 92.8054 35 92.0321 35H89.9621V28.01H92.0321ZM92.0321 34.42C93.0054 34.42 93.7454 34.1667 94.2521 33.66C94.7654 33.1467 95.0221 32.4333 95.0221 31.52C95.0221 30.6 94.7654 29.8833 94.2521 29.37C93.7454 28.85 93.0054 28.59 92.0321 28.59H90.6621V34.42H92.0321ZM101.963 31.99C101.963 32.23 101.956 32.4133 101.943 32.54H97.4127C97.4327 32.9533 97.5327 33.3067 97.7127 33.6C97.8927 33.8933 98.1293 34.1167 98.4227 34.27C98.716 34.4167 99.036 34.49 99.3827 34.49C99.836 34.49 100.216 34.38 100.523 34.16C100.836 33.94 101.043 33.6433 101.143 33.27H101.883C101.749 33.8033 101.463 34.24 101.023 34.58C100.589 34.9133 100.043 35.08 99.3827 35.08C98.8693 35.08 98.4093 34.9667 98.0027 34.74C97.596 34.5067 97.276 34.18 97.0427 33.76C96.816 33.3333 96.7027 32.8367 96.7027 32.27C96.7027 31.7033 96.816 31.2067 97.0427 30.78C97.2693 30.3533 97.586 30.0267 97.9927 29.8C98.3993 29.5733 98.8627 29.46 99.3827 29.46C99.9027 29.46 100.356 29.5733 100.743 29.8C101.136 30.0267 101.436 30.3333 101.643 30.72C101.856 31.1 101.963 31.5233 101.963 31.99ZM101.253 31.97C101.259 31.5633 101.176 31.2167 101.003 30.93C100.836 30.6433 100.606 30.4267 100.313 30.28C100.019 30.1333 99.6993 30.06 99.3527 30.06C98.8327 30.06 98.3893 30.2267 98.0227 30.56C97.656 30.8933 97.4527 31.3633 97.4127 31.97H101.253ZM103.943 27.6V35H103.243V27.6H103.943ZM105.879 28.51C105.739 28.51 105.619 28.46 105.519 28.36C105.419 28.26 105.369 28.1367 105.369 27.99C105.369 27.8433 105.419 27.7233 105.519 27.63C105.619 27.53 105.739 27.48 105.879 27.48C106.019 27.48 106.139 27.53 106.239 27.63C106.339 27.7233 106.389 27.8433 106.389 27.99C106.389 28.1367 106.339 28.26 106.239 28.36C106.139 28.46 106.019 28.51 105.879 28.51ZM106.229 29.54V35H105.529V29.54H106.229ZM107.494 32.27C107.494 31.7033 107.607 31.21 107.834 30.79C108.06 30.3633 108.374 30.0367 108.774 29.81C109.174 29.5767 109.63 29.46 110.144 29.46C110.817 29.46 111.37 29.6267 111.804 29.96C112.244 30.2933 112.527 30.7467 112.654 31.32H111.904C111.81 30.9267 111.607 30.62 111.294 30.4C110.987 30.1733 110.604 30.06 110.144 30.06C109.777 30.06 109.447 30.1433 109.154 30.31C108.86 30.4767 108.627 30.7267 108.454 31.06C108.287 31.3867 108.204 31.79 108.204 32.27C108.204 32.75 108.287 33.1567 108.454 33.49C108.627 33.8233 108.86 34.0733 109.154 34.24C109.447 34.4067 109.777 34.49 110.144 34.49C110.604 34.49 110.987 34.38 111.294 34.16C111.607 33.9333 111.81 33.62 111.904 33.22H112.654C112.527 33.78 112.244 34.23 111.804 34.57C111.364 34.91 110.81 35.08 110.144 35.08C109.63 35.08 109.174 34.9667 108.774 34.74C108.374 34.5067 108.06 34.18 107.834 33.76C107.607 33.3333 107.494 32.8367 107.494 32.27ZM114.296 28.51C114.156 28.51 114.036 28.46 113.936 28.36C113.836 28.26 113.786 28.1367 113.786 27.99C113.786 27.8433 113.836 27.7233 113.936 27.63C114.036 27.53 114.156 27.48 114.296 27.48C114.436 27.48 114.556 27.53 114.656 27.63C114.756 27.7233 114.806 27.8433 114.806 27.99C114.806 28.1367 114.756 28.26 114.656 28.36C114.556 28.46 114.436 28.51 114.296 28.51ZM114.646 29.54V35H113.946V29.54H114.646ZM118.622 35.08C118.108 35.08 117.645 34.9667 117.232 34.74C116.825 34.5067 116.502 34.18 116.262 33.76C116.028 33.3333 115.912 32.8367 115.912 32.27C115.912 31.7033 116.032 31.21 116.272 30.79C116.512 30.3633 116.838 30.0367 117.252 29.81C117.665 29.5767 118.128 29.46 118.642 29.46C119.155 29.46 119.618 29.5767 120.032 29.81C120.452 30.0367 120.778 30.3633 121.012 30.79C121.252 31.21 121.372 31.7033 121.372 32.27C121.372 32.83 121.252 33.3233 121.012 33.75C120.772 34.1767 120.442 34.5067 120.022 34.74C119.602 34.9667 119.135 35.08 118.622 35.08ZM118.622 34.47C118.982 34.47 119.315 34.39 119.622 34.23C119.928 34.0633 120.175 33.8167 120.362 33.49C120.555 33.1567 120.652 32.75 120.652 32.27C120.652 31.79 120.558 31.3867 120.372 31.06C120.185 30.7267 119.938 30.48 119.632 30.32C119.325 30.1533 118.992 30.07 118.632 30.07C118.272 30.07 117.938 30.1533 117.632 30.32C117.325 30.48 117.078 30.7267 116.892 31.06C116.712 31.3867 116.622 31.79 116.622 32.27C116.622 32.75 116.712 33.1567 116.892 33.49C117.078 33.8167 117.322 34.0633 117.622 34.23C117.928 34.39 118.262 34.47 118.622 34.47ZM124.528 35.08C123.901 35.08 123.388 34.9367 122.988 34.65C122.594 34.3567 122.374 33.96 122.328 33.46H123.048C123.081 33.7667 123.224 34.0167 123.478 34.21C123.738 34.3967 124.084 34.49 124.518 34.49C124.898 34.49 125.194 34.4 125.408 34.22C125.628 34.04 125.738 33.8167 125.738 33.55C125.738 33.3633 125.678 33.21 125.558 33.09C125.438 32.97 125.284 32.8767 125.098 32.81C124.918 32.7367 124.671 32.66 124.358 32.58C123.951 32.4733 123.621 32.3667 123.368 32.26C123.114 32.1533 122.898 31.9967 122.718 31.79C122.544 31.5767 122.458 31.2933 122.458 30.94C122.458 30.6733 122.538 30.4267 122.698 30.2C122.858 29.9733 123.084 29.7933 123.378 29.66C123.671 29.5267 124.004 29.46 124.378 29.46C124.964 29.46 125.438 29.61 125.798 29.91C126.158 30.2033 126.351 30.61 126.378 31.13H125.678C125.658 30.81 125.531 30.5533 125.298 30.36C125.071 30.16 124.758 30.06 124.358 30.06C124.004 30.06 123.718 30.1433 123.498 30.31C123.278 30.4767 123.168 30.6833 123.168 30.93C123.168 31.1433 123.231 31.32 123.358 31.46C123.491 31.5933 123.654 31.7 123.848 31.78C124.041 31.8533 124.301 31.9367 124.628 32.03C125.021 32.1367 125.334 32.24 125.568 32.34C125.801 32.44 126.001 32.5867 126.168 32.78C126.334 32.9733 126.421 33.23 126.428 33.55C126.428 33.8433 126.348 34.1067 126.188 34.34C126.028 34.5667 125.804 34.7467 125.518 34.88C125.231 35.0133 124.901 35.08 124.528 35.08Z" fill="white"/>
<defs>
<clipPath id="clip0">
<rect y="2" width="35" height="35" fill="white"/>
</clipPath>
</defs>
</svg>
